<?xml version="1.0" encoding="UTF-8"?>
<!DOCTYPE svg PUBLIC "-//W3C//DTD SVG 1.1//EN" "http://www.w3.org/Graphics/SVG/1.1/DTD/svg11.dtd">
<svg xmlns="http://www.w3.org/2000/svg" version="1.1" width="200px" height="200px" style="shape-rendering:geometricPrecision; text-rendering:geometricPrecision; image-rendering:optimizeQuality; fill-rule:evenodd; clip-rule:evenodd" xmlns:xlink="http://www.w3.org/1999/xlink">
<g><path style="opacity:1" fill="#fdfefe" d="M -0.5,-0.5 C 66.1667,-0.5 132.833,-0.5 199.5,-0.5C 199.5,66.1667 199.5,132.833 199.5,199.5C 132.833,199.5 66.1667,199.5 -0.5,199.5C -0.5,132.833 -0.5,66.1667 -0.5,-0.5 Z"/></g>
<g><path style="opacity:1" fill="#1c8d76" d="M 156.5,29.5 C 157.911,31.914 159.911,33.5806 162.5,34.5C 182.419,55.3803 191.419,80.3803 189.5,109.5C 188.343,112.273 187.676,115.273 187.5,118.5C 176.702,158.745 150.702,182.245 109.5,189C 80.365,191.414 55.365,182.58 34.5,162.5C 33.5806,159.911 31.914,157.911 29.5,156.5C 6.56592,125.084 3.39925,91.751 20,56.5C 45.3944,16.4704 81.2277,2.30376 127.5,14C 138.074,17.618 147.74,22.7847 156.5,29.5 Z"/></g>
<g><path style="opacity:1" fill="#23bd9e" d="M 89.5,15.5 C 132.452,14.2102 162.285,33.2102 179,72.5C 188.746,107.019 180.913,136.852 155.5,162C 120.805,189.094 85.1387,190.427 48.5,166C 19.5284,140.862 10.0284,109.696 20,72.5C 32.852,40.8056 56.0187,21.8056 89.5,15.5 Z"/></g>
<g><path style="opacity:1" fill="#28c3a4" d="M 96.5,17.5 C 138.448,19.6375 165.615,40.6375 178,80.5C 184.01,113.139 174.51,140.305 149.5,162C 116.107,185.32 82.7739,185.32 49.5,162C 18.347,133.583 11.1803,100.083 28,61.5C 43.1836,34.8302 66.017,20.1635 96.5,17.5 Z"/></g>
<g><path style="opacity:1" fill="#2fc8a9" d="M 94.5,25.5 C 126.125,25.3898 149.625,39.0565 165,66.5C 179.592,103.6 171.425,134.433 140.5,159C 108.517,177.576 78.1832,175.242 49.5,152C 25.9123,126.989 20.7457,98.4891 34,66.5C 47.2477,42.4706 67.4144,28.804 94.5,25.5 Z"/></g>
<g><path style="opacity:1" fill="#afd6d4" d="M 156.5,29.5 C 159.089,30.4194 161.089,32.086 162.5,34.5C 159.911,33.5806 157.911,31.914 156.5,29.5 Z"/></g>
<g><path style="opacity:1" fill="#35ccae" d="M 140.5,48.5 C 137.744,50.2038 134.744,51.5371 131.5,52.5C 110.393,39.3562 89.0601,39.1895 67.5,52C 45.7354,69.8775 38.902,92.3775 47,119.5C 57.2984,141.751 74.7984,153.751 99.5,155.5C 105.85,159.998 111.517,159.331 116.5,153.5C 136.603,145.228 149.437,130.561 155,109.5C 155.667,102.5 155.667,95.5 155,88.5C 153.024,82.929 151.524,77.2623 150.5,71.5C 151.463,68.2558 152.796,65.2558 154.5,62.5C 171.525,94.6243 167.192,123.458 141.5,149C 113.5,168.333 85.5,168.333 57.5,149C 31.6383,123.381 27.4716,94.5475 45,62.5C 64.5315,36.5658 90.0315,28.0658 121.5,37C 128.563,39.8542 134.896,43.6875 140.5,48.5 Z"/></g>
<g><path style="opacity:1" fill="#f9fdfc" d="M 140.5,48.5 C 150.5,47.8333 155.167,52.5 154.5,62.5C 152.796,65.2558 151.463,68.2558 150.5,71.5C 138.99,98.6811 127.656,126.014 116.5,153.5C 111.517,159.331 105.85,159.998 99.5,155.5C 96.0331,146.981 92.8664,138.315 90,129.5C 88.1516,123.347 90.1516,121.347 96,123.5C 99.4585,132.041 102.625,140.707 105.5,149.5C 106.833,150.833 108.167,150.833 109.5,149.5C 121.057,120.719 132.89,92.0525 145,63.5C 147.833,57 146,55.1667 139.5,58C 110.833,70 82.1667,82 53.5,94C 52.1667,95.3333 52.1667,96.6667 53.5,98C 62.1765,101.007 70.8432,104.007 79.5,107C 80.8333,107.667 82.1667,107.667 83.5,107C 95.3529,97.2368 107.02,87.2368 118.5,77C 124.775,74.1073 126.775,75.9406 124.5,82.5C 111.352,93.9047 98.0183,105.071 84.5,116C 72.7849,112.815 61.1182,109.149 49.5,105C 44.9191,101.562 43.4191,97.0616 45,91.5C 46.1667,89 48,87.1667 50.5,86C 77.7215,75.1005 104.721,63.9338 131.5,52.5C 134.744,51.5371 137.744,50.2038 140.5,48.5 Z"/></g>
<g><path style="opacity:1" fill="#3ed1b3" d="M 131.5,52.5 C 104.721,63.9338 77.7215,75.1005 50.5,86C 48,87.1667 46.1667,89 45,91.5C 43.4191,97.0616 44.9191,101.562 49.5,105C 61.1182,109.149 72.7849,112.815 84.5,116C 98.0183,105.071 111.352,93.9047 124.5,82.5C 126.775,75.9406 124.775,74.1073 118.5,77C 107.02,87.2368 95.3529,97.2368 83.5,107C 82.1667,107.667 80.8333,107.667 79.5,107C 70.8432,104.007 62.1765,101.007 53.5,98C 52.1667,96.6667 52.1667,95.3333 53.5,94C 82.1667,82 110.833,70 139.5,58C 146,55.1667 147.833,57 145,63.5C 132.89,92.0525 121.057,120.719 109.5,149.5C 108.167,150.833 106.833,150.833 105.5,149.5C 102.625,140.707 99.4585,132.041 96,123.5C 90.1516,121.347 88.1516,123.347 90,129.5C 92.8664,138.315 96.0331,146.981 99.5,155.5C 74.7984,153.751 57.2984,141.751 47,119.5C 38.902,92.3775 45.7354,69.8775 67.5,52C 89.0601,39.1895 110.393,39.3562 131.5,52.5 Z"/></g>
<g><path style="opacity:1" fill="#3fd1b4" d="M 150.5,71.5 C 151.524,77.2623 153.024,82.929 155,88.5C 155.667,95.5 155.667,102.5 155,109.5C 149.437,130.561 136.603,145.228 116.5,153.5C 127.656,126.014 138.99,98.6811 150.5,71.5 Z"/></g>
<g><path style="opacity:1" fill="#a3d1cc" d="M 189.5,109.5 C 189.785,112.829 189.118,115.829 187.5,118.5C 187.676,115.273 188.343,112.273 189.5,109.5 Z"/></g>
<g><path style="opacity:1" fill="#afd6d3" d="M 29.5,156.5 C 31.914,157.911 33.5806,159.911 34.5,162.5C 32.086,161.089 30.4194,159.089 29.5,156.5 Z"/></g>
</svg>
